<?xml version="1.0" standalone="no"?><!DOCTYPE svg PUBLIC "-//W3C//DTD SVG 1.1//EN" "http://www.w3.org/Graphics/SVG/1.1/DTD/svg11.dtd"><svg t="1522569356316" class="icon" style="" viewBox="0 0 1024 1024" version="1.1" xmlns="http://www.w3.org/2000/svg" p-id="6353" xmlns:xlink="http://www.w3.org/1999/xlink" width="200" height="200"><defs><style type="text/css"></style></defs><path d="M847.02124 326.025355c15.748682-29.372981 52.226478-38.675858 81.525781-23.659863 29.368888 17.213034 38.675858 54.42454 22.194488 82.991156l-86.507236 151.689795c-9.302877 20.005636-29.377074 35.754319-54.42454 35.754318-12.158924 0-22.12081-3.588735-31.423687-9.302877l-154.556075-87.980797c-29.299303-16.47216-40.067554-54.41533-22.853497-82.981946 17.140379-29.372981 53.618175-38.611389 82.254375-22.927175l39.338961 22.927175c-13.624299-29.372981-32.889061-57.207933-55.08355-80.134085-51.493791-51.503001-121.593336-83.000366-200.263069-83.000366-77.278037 0-147.377582 31.497365-198.871374 83.000366-50.102095 50.762127-81.59946 121.593336-81.599459 199.604061 0 77.937047 31.497365 148.036591 81.599459 198.138686 51.493791 51.493791 121.593336 82.991156 198.871374 82.991155 33.616632 0 61.451584 27.834952 61.451584 60.796668 0 33.621748-27.834952 60.796668-61.451584 60.796668-110.167099 0-211.767078-45.780673-284.7196-118.737288C109.549022 723.694423 65.160045 622.830201 65.160045 512.004093c0-110.898763 44.388976-212.495672 117.344569-285.451264 72.951499-72.223928 174.552501-117.281123 284.7196-117.281123 111.558795 0 213.154681 45.057195 286.111297 117.281123 32.889061 34.345226 60.063981 74.420967 81.521688 120.201639l12.164041-20.729113z" p-id="6354"></path></svg>